<svg width="521" height="431" viewBox="0 0 521 431" fill="none" xmlns="http://www.w3.org/2000/svg">
<rect y="107" width="330" height="330" fill="#C4C4C4" fill-opacity="0.03"/>
<path d="M44.25 256L149.25 192.75V216.25L76.25 261.25L149.25 305.5V330L44.25 267.5V256ZM282.691 267.5L177.691 330V305.5L250.691 261.25L177.691 216.25V192.75L282.691 256V267.5Z" fill="#3F3F3F" fill-opacity="0.44"/>
<rect x="189" width="326" height="326" fill="#C4C4C4" fill-opacity="0.03"/>
<path d="M246.842 166.974L318.863 194.317V223.98L216.69 178.448V154.889L318.863 109.479V139.142L246.842 166.974ZM337.257 259.259H313.941L383.888 66.2656H407.203L337.257 259.259ZM481.139 166.363L405.699 138.653V109.479L511.168 154.889V178.448L405.699 223.858V194.684L481.139 166.363Z" fill="#2A2B2E" fill-opacity="0.22"/>
</svg>
