<svg width="57" height="57" viewBox="0 0 57 57" fill="none" xmlns="http://www.w3.org/2000/svg">
<rect width="57" height="57" rx="21" fill="white"/>
<g clip-path="url(#clip0)">
<rect x="11.4" y="6.84" width="33.63" height="41.04" rx="16.815" fill="white"/>
<path d="M29.445 47.5754C24.1904 47.5754 19.915 45.844 16.6188 42.3813C13.3227 38.8945 11.6747 34.2414 11.6747 28.4221V27.1956C11.6747 23.3241 12.4032 19.8734 13.8601 16.8435C15.341 13.7896 17.3951 11.4089 20.0225 9.70158C22.6737 7.97021 25.5399 7.10452 28.621 7.10452C33.6608 7.10452 37.5779 8.77578 40.3724 12.1183C43.167 15.4608 44.5643 20.2461 44.5643 26.4743V29.2517H18.3027C18.3983 33.0992 19.5089 36.2133 21.6347 38.5939C23.7843 40.9505 26.5072 42.1288 29.8033 42.1288C32.1441 42.1288 34.1265 41.6479 35.7507 40.686C37.3749 39.7241 38.796 38.4496 40.0141 36.8625L44.0627 40.0368C40.8143 45.0625 35.9417 47.5754 29.445 47.5754ZM28.621 12.5872C25.9459 12.5872 23.7007 13.5731 21.8855 15.545C20.0702 17.4928 18.9476 20.2341 18.5177 23.769H37.9362V23.264C37.7451 19.8734 36.8374 17.2523 35.2133 15.4007C33.5891 13.525 31.3917 12.5872 28.621 12.5872Z" fill="#0C0B15"/>
<ellipse cx="32.49" cy="20.52" rx="1.14" ry="1.14" fill="#0C0B15"/>
<path d="M34.2 17.441C32.3712 16.6274 29.07 17.1539 27.93 20.2889" stroke="#0C0B15"/>
<path d="M36.5626 32.205C37.0186 31.293 36.9426 29.735 36.8476 29.07H38.5576V31.065C38.5576 31.635 35.9926 33.345 36.5626 32.205Z" fill="#0C0B15" stroke="#0C0B15"/>
</g>
<defs>
<clipPath id="clip0">
<rect x="11.4" y="6.84" width="33.63" height="41.04" rx="16.815" fill="white"/>
</clipPath>
</defs>
</svg>
